# xmcd CD database file
#
# Track frame offsets:
#	150
#	20652
#	37562
#	54310
#	67137
#	92542
#	101750
#	119627
#	132702
#	149987
#	167780
#
# Disc length: 2450 seconds
#
# Revision: 0
# Processed by: cddbd v1.4PL0 Copyright (c) Steve Scherf et al.
# Submitted via: CDex 1.40Release
#
DISCID=a509900b
DTITLE=Robert Bilbo Walker - Rock the night
DYEAR=2001
DGENRE=Blues
TTITLE0=Cut you a loose
TTITLE1=Found love
TTITLE2=Rooster blues
TTITLE3=Linda Lu
TTITLE4=Standing at my window - don't answer the door
TTITLE5=Truck driving man
TTITLE6=Why I sing the blues
TTITLE7=Memphis
TTITLE8=Stagger Lee
TTITLE9=Robert U Goode - Little queenie
TTITLE10=Hide away
EXTD=YEAR: 2001 ID3G: 0
EXTT0=
EXTT1=
EXTT2=
EXTT3=
EXTT4=
EXTT5=
EXTT6=
EXTT7=
EXTT8=
EXTT9=
EXTT10=
PLAYORDER=
